<?xml version="1.0" encoding="UTF-8" standalone="no"?><!DOCTYPE svg PUBLIC "-//W3C//DTD SVG 1.1//EN" "http://www.w3.org/Graphics/SVG/1.1/DTD/svg11.dtd"><svg width="100%" height="100%" viewBox="0 0 512 512" version="1.1" xmlns="http://www.w3.org/2000/svg" xmlns:xlink="http://www.w3.org/1999/xlink" xml:space="preserve" xmlns:serif="http://www.serif.com/" style="fill-rule:evenodd;clip-rule:evenodd;stroke-linejoin:round;stroke-miterlimit:1.41421;"><g><path d="M467.069,212.578l-199.688,-199.717c-11.777,-11.748 -30.828,-11.609 -42.451,-0.015c-11.689,11.719 -11.689,30.747 0,42.451l199.717,199.703c11.7,11.7 30.721,11.7 42.422,0c11.732,-11.732 11.732,-30.692 0,-42.422Z" style="fill-rule:nonzero;"/><path d="M210.115,82.905l-1.503,7.534c-10.587,52.958 -36.317,103.269 -71.118,144.046l108.647,108.647c40.772,-34.794 90.39,-61.215 143.35,-71.815l7.548,-1.503l-186.924,-186.909Z" style="fill-rule:nonzero;"/><path d="M117.575,256.989l-74.253,74.238c-17.545,17.545 -17.618,46.029 0,63.647l42.422,42.422c17.545,17.545 46.029,17.617 63.647,0l74.246,-74.246l-106.062,-106.061Zm10.606,116.675c-5.859,5.859 -15.352,5.859 -21.211,0c-5.859,-5.859 -5.859,-15.352 0,-21.211l21.211,-21.211c5.859,-5.859 15.352,-5.859 21.211,0c5.859,5.859 5.859,15.352 0,21.211l-21.211,21.211Z" style="fill-rule:nonzero;"/><path d="M286.266,445.278l20.405,-20.405c17.619,-17.616 17.561,-46.1 0.001,-63.631l-15.156,-15.167c-8.377,5.627 -16.377,11.741 -24.155,18.265l18.1,18.127c5.845,5.815 5.886,15.279 0,21.196l-20.742,20.742l-30.482,-29.533l-42.424,42.424l68.057,65.947c11.614,11.644 30.683,11.71 42.407,-0.015c11.704,-11.704 11.704,-30.732 0,-42.437l-16.011,-15.513Z" style="fill-rule:nonzero;"/><path d="M346.864,0c-8.291,0 -15,6.709 -15,15l0,30c0,8.291 6.709,15 15,15c8.291,0 15,-6.709 15,-15l0,-30c0,-8.291 -6.709,-15 -15,-15Z" style="fill-rule:nonzero;"/><path d="M466.864,120l-30,0c-8.291,0 -15,6.709 -15,15c0,8.291 6.709,15 15,15l30,0c8.291,0 15,-6.709 15,-15c0,-8.291 -6.709,-15 -15,-15Z" style="fill-rule:nonzero;"/><path d="M447.469,34.394c-5.859,-5.859 -15.352,-5.859 -21.211,0l-30,30c-5.859,5.859 -5.859,15.352 0,21.211c5.859,5.859 15.352,5.86 21.211,0l30,-30c5.859,-5.859 5.859,-15.352 0,-21.211Z" style="fill-rule:nonzero;"/></g></svg>