<?xml version="1.0" encoding="UTF-8" standalone="no"?><!DOCTYPE svg PUBLIC "-//W3C//DTD SVG 1.1//EN" "http://www.w3.org/Graphics/SVG/1.1/DTD/svg11.dtd"><svg width="100%" height="100%" viewBox="0 0 512 512" version="1.1" xmlns="http://www.w3.org/2000/svg" xmlns:xlink="http://www.w3.org/1999/xlink" xml:space="preserve" xmlns:serif="http://www.serif.com/" style="fill-rule:evenodd;clip-rule:evenodd;stroke-linejoin:round;stroke-miterlimit:1.41421;"><g><path d="M512,102.871c0,-7.743 -3.015,-15.022 -8.49,-20.496l-11.386,-11.388c-5.475,-5.475 -12.755,-8.49 -20.498,-8.49c-7.743,0 -15.022,3.015 -20.498,8.49l-53.653,53.653l0,-57.177c0,-5.632 -4.567,-10.199 -10.199,-10.199l-377.077,0c-5.633,-0.001 -10.199,4.567 -10.199,10.199l0,377.074c0,5.632 4.566,10.199 10.199,10.199l377.076,0c5.632,0 10.199,-4.567 10.199,-10.199l-0.004,-215.126l106.04,-106.041c5.475,-5.475 8.49,-12.756 8.49,-20.499Zm-134.924,331.466l-356.678,0l0,-356.674l356.677,0l0,67.376l-186.728,186.727c-1.12,1.12 -1.963,2.486 -2.464,3.987l-18.98,56.939c-1.222,3.665 -0.268,7.706 2.464,10.437c1.944,1.944 4.551,2.987 7.214,2.987c1.079,0 2.167,-0.171 3.224,-0.523l56.939,-18.979c1.502,-0.501 2.867,-1.344 3.987,-2.464l134.345,-134.344l0,184.531Zm-147.068,-66.313l-35.304,11.767l11.768,-35.304l216.564,-216.563l23.536,23.536l-216.564,216.564Zm259.078,-259.079l-28.09,28.091l-11.768,-11.768l-11.767,-11.768l28.091,-28.091c1.623,-1.623 3.779,-2.516 6.074,-2.516c2.295,0 4.451,0.893 6.074,2.515l11.388,11.389c1.622,1.623 2.515,3.779 2.515,6.073c0,2.296 -0.894,4.453 -2.517,6.075Z" style="fill-rule:nonzero;"/><path d="M318.126,121.009l-9.724,0c-5.632,0 -10.199,4.567 -10.199,10.199c0,5.632 4.566,10.199 10.199,10.199l9.724,0c5.632,0 10.199,-4.567 10.199,-10.199c0.001,-5.631 -4.567,-10.199 -10.199,-10.199Z" style="fill-rule:nonzero;"/><path d="M264.104,121.009l-185.837,0c-5.633,0 -10.199,4.567 -10.199,10.199c0,5.632 4.566,10.199 10.199,10.199l185.838,0c5.632,0 10.199,-4.567 10.199,-10.199c-0.001,-5.631 -4.568,-10.199 -10.2,-10.199Z" style="fill-rule:nonzero;"/><path d="M254.379,180.434l-176.112,0c-5.633,0 -10.199,4.567 -10.199,10.199c0,5.632 4.566,10.199 10.199,10.199l176.113,0c5.633,0 10.2,-4.567 10.2,-10.199c0,-5.632 -4.568,-10.199 -10.201,-10.199Z" style="fill-rule:nonzero;"/><path d="M190.633,239.859l-112.366,0c-5.633,0 -10.199,4.567 -10.199,10.199c0,5.632 4.566,10.199 10.199,10.199l112.367,0c5.633,0 10.199,-4.567 10.199,-10.199c0,-5.632 -4.567,-10.199 -10.2,-10.199Z" style="fill-rule:nonzero;"/><path d="M142.014,298.202l-63.747,0c-5.633,0 -10.199,4.567 -10.199,10.199c0,5.632 4.566,10.199 10.199,10.199l63.746,0c5.633,0 10.199,-4.567 10.199,-10.199c0,-5.632 -4.565,-10.199 -10.198,-10.199Z" style="fill-rule:nonzero;"/></g></svg>