<?xml version="1.0" encoding="UTF-8" standalone="no"?><!DOCTYPE svg PUBLIC "-//W3C//DTD SVG 1.1//EN" "http://www.w3.org/Graphics/SVG/1.1/DTD/svg11.dtd"><svg width="100%" height="100%" viewBox="0 0 512 512" version="1.1" xmlns="http://www.w3.org/2000/svg" xmlns:xlink="http://www.w3.org/1999/xlink" xml:space="preserve" xmlns:serif="http://www.serif.com/" style="fill-rule:evenodd;clip-rule:evenodd;stroke-linejoin:round;stroke-miterlimit:1.41421;"><g><path d="M255.048,242.252c0.315,-0.022 0.632,-0.032 0.952,-0.032c66.78,0 121.11,-54.33 121.11,-121.108c0,-66.781 -54.33,-121.111 -121.11,-121.111c-141.16,0 -256,114.842 -256,256c0,99.68 57.272,186.228 140.634,228.489c-20.788,-25.573 -33.268,-58.156 -33.268,-93.604c0,-81.638 66.164,-148.115 147.682,-148.634Zm4.833,-157.766c21.016,0 38.054,17.036 38.054,38.054c0,21.016 -17.039,38.054 -38.054,38.054c-21.016,0 -38.054,-17.037 -38.054,-38.054c0.001,-21.018 17.038,-38.054 38.054,-38.054Z" style="fill-rule:nonzero;"/><path d="M371.376,27.518c20.784,25.572 33.26,58.15 33.26,93.593c0,81.637 -66.165,148.113 -147.683,148.631c-0.315,0.022 -0.632,0.032 -0.952,0.032c-66.78,0 -121.108,54.331 -121.108,121.111c0,66.78 54.329,121.108 121.107,121.108c0.036,0 0.07,0.006 0.106,0.006c141.11,-0.058 255.894,-114.875 255.894,-255.999c0,-99.675 -57.268,-186.219 -140.624,-228.482Zm-111.495,402.237c-21.016,0 -38.054,-17.037 -38.054,-38.054c0,-21.017 17.037,-38.052 38.054,-38.052c21.016,0 38.054,17.036 38.054,38.052c0,21.016 -17.038,38.054 -38.054,38.054Z" style="fill-rule:nonzero;"/></g></svg>