<?xml version="1.0" encoding="UTF-8" standalone="no"?><!DOCTYPE svg PUBLIC "-//W3C//DTD SVG 1.1//EN" "http://www.w3.org/Graphics/SVG/1.1/DTD/svg11.dtd"><svg width="100%" height="100%" viewBox="0 0 60 60" version="1.1" xmlns="http://www.w3.org/2000/svg" xmlns:xlink="http://www.w3.org/1999/xlink" xml:space="preserve" xmlns:serif="http://www.serif.com/" style="fill-rule:evenodd;clip-rule:evenodd;stroke-linejoin:round;stroke-miterlimit:1.41421;"><path d="M48.014,42.889l-9.553,-4.776c-0.901,-0.451 -1.461,-1.357 -1.461,-2.365l0,-3.381c0.229,-0.28 0.47,-0.599 0.719,-0.951c1.239,-1.75 2.232,-3.698 2.954,-5.799c1.411,-0.647 2.327,-2.042 2.327,-3.617l0,-4c0,-0.963 -0.36,-1.896 -1,-2.625l0,-5.319c0.056,-0.55 0.276,-3.824 -2.092,-6.525c-2.054,-2.343 -5.387,-3.531 -9.908,-3.531c-4.521,0 -7.854,1.188 -9.908,3.53c-2.368,2.701 -2.148,5.976 -2.092,6.526l0,5.319c-0.64,0.729 -1,1.662 -1,2.625l0,4c0,1.217 0.553,2.352 1.497,3.109c0.916,3.627 2.833,6.36 3.503,7.237l0,3.309c0,0.968 -0.528,1.856 -1.377,2.32l-8.921,4.866c-2.901,1.583 -4.702,4.617 -4.702,7.921l0,3.238c0,4.746 15.045,6 23,6c7.955,0 23,-1.254 23,-6l0,-3.043c0,-3.438 -1.911,-6.53 -4.986,-8.068Z" style="fill-rule:nonzero;"/></svg>