<?xml version="1.0" encoding="UTF-8" standalone="no"?><!DOCTYPE svg PUBLIC "-//W3C//DTD SVG 1.1//EN" "http://www.w3.org/Graphics/SVG/1.1/DTD/svg11.dtd"><svg width="100%" height="100%" viewBox="0 0 512 512" version="1.1" xmlns="http://www.w3.org/2000/svg" xmlns:xlink="http://www.w3.org/1999/xlink" xml:space="preserve" xmlns:serif="http://www.serif.com/" style="fill-rule:evenodd;clip-rule:evenodd;stroke-linejoin:round;stroke-miterlimit:1.41421;"><g><path d="M192,326.343l-20.947,0l0,185.657l-122,0l0,-185.657l-21.053,0l0,-190l164,0l0,190Z"/><circle cx="110" cy="63" r="40"/><circle cx="444" cy="40" r="40"/><circle cx="444" cy="184" r="40"/><circle cx="444" cy="328" r="40"/><circle cx="444" cy="472" r="40"/><path d="M315.5,455l45,0l0,34l-45,0l0,-34Zm0,-432l0,466l-35,0l0,-216l-45,0l0,-34l45,0l0,-216l35,0Zm0,288l45,0l0,34l-45,0l0,-34Zm0,-144l45,0l0,34l-45,0l0,-34Zm0,-144l45,0l0,34l-45,0l0,-34Z"/></g></svg>