<?xml version="1.0" encoding="UTF-8" standalone="no"?><!DOCTYPE svg PUBLIC "-//W3C//DTD SVG 1.1//EN" "http://www.w3.org/Graphics/SVG/1.1/DTD/svg11.dtd"><svg width="100%" height="100%" viewBox="0 0 512 512" version="1.1" xmlns="http://www.w3.org/2000/svg" xmlns:xlink="http://www.w3.org/1999/xlink" xml:space="preserve" xmlns:serif="http://www.serif.com/" style="fill-rule:evenodd;clip-rule:evenodd;stroke-linejoin:round;stroke-miterlimit:1.41421;"><g><path d="M363.71,0l-215.42,0c-20.617,0 -37.259,16.717 -37.259,37.296l0,437.445c0,20.561 16.642,37.259 37.259,37.259l215.42,0c20.579,0 37.259,-16.698 37.259,-37.259l0,-437.445c0,-20.579 -16.68,-37.296 -37.259,-37.296Zm-160.865,22.65l106.348,0c2.686,0 4.869,4.012 4.869,8.975c0,4.962 -2.183,8.992 -4.869,8.992l-106.348,0c-2.706,0 -4.851,-4.03 -4.851,-8.992c0,-4.963 2.145,-8.975 4.851,-8.975Zm53.174,452.539c-13.117,0 -23.789,-10.672 -23.789,-23.807c0,-13.135 10.672,-23.77 23.789,-23.77c13.079,0 23.751,10.635 23.751,23.77c0,13.135 -10.672,23.807 -23.751,23.807Zm117.038,-81.515l-234.096,0l0,-330.742l234.096,0l0,330.742Z" style="fill-rule:nonzero;"/></g></svg>