<?xml version="1.0" encoding="UTF-8" standalone="no"?><!DOCTYPE svg PUBLIC "-//W3C//DTD SVG 1.1//EN" "http://www.w3.org/Graphics/SVG/1.1/DTD/svg11.dtd"><svg width="100%" height="100%" viewBox="0 0 512 512" version="1.1" xmlns="http://www.w3.org/2000/svg" xmlns:xlink="http://www.w3.org/1999/xlink" xml:space="preserve" xmlns:serif="http://www.serif.com/" style="fill-rule:evenodd;clip-rule:evenodd;stroke-linejoin:round;stroke-miterlimit:1.41421;"><g><path d="M276.843,41.358c5.791,-7.675 4.86,-23.955 4.036,-38.315c-0.031,-0.619 -0.066,-1.225 -0.101,-1.84c-8.117,-0.775 -16.333,-1.203 -24.65,-1.203c-31.866,0 -62.358,5.871 -90.5,16.513c20.075,9.647 51.15,26.253 85.691,50.788c11.785,-10.142 20.673,-19.505 25.524,-25.943Z" style="fill-rule:nonzero;"/><path d="M406.554,187.434c-12.617,1.426 -23.259,3.496 -32.36,6.401c43.506,75.958 60.468,171.922 64.619,241.444c43.099,-43.914 70.471,-103.281 73.059,-169.04c-29.698,-36.503 -69.04,-82.92 -105.318,-78.805Z" style="fill-rule:nonzero;"/><path d="M147.923,121.869c30.568,-6.361 59.286,-21.746 82.184,-37.985c-47.769,-32.901 -87.611,-49.975 -95.537,-53.225c-49.559,26.791 -89.217,69.477 -112.289,121.198c29.989,-11.949 62.467,-18.028 94.367,-23.951c10.32,-1.916 20.988,-3.897 31.275,-6.037Z" style="fill-rule:nonzero;"/><path d="M324.867,129.313c2.728,2.742 5.449,5.531 8.152,8.373c9.972,10.468 19.02,21.918 27.318,34.032c12.083,-4.562 26.309,-7.798 43.337,-9.723c40.122,-4.538 75.798,27.245 106.418,62.236c-6.565,-53.045 -29.315,-101.054 -63.213,-138.915c-18.504,2.229 -39.132,6.007 -60.157,12.281c-13.792,4.119 -35.756,15.312 -61.855,31.716Z" style="fill-rule:nonzero;"/><path d="M291.183,261.519c10.5,-35.564 22.662,-61.201 46.226,-77.842c-7.072,-10.152 -14.682,-19.68 -22.926,-28.336c-3.813,-4.005 -7.67,-7.873 -11.543,-11.673c-94.54,64.35 -224.041,182.559 -235.817,284.978c39.308,43.008 93.104,72.502 153.664,80.87c22.05,-43.901 42.804,-133.148 55.14,-186.226c5.927,-25.494 11.043,-47.507 15.256,-61.771Z" style="fill-rule:nonzero;"/><path d="M183.991,205.122c32.963,-30.375 67.774,-57.613 99.613,-79.504c-10.613,-9.39 -21.258,-18.046 -31.709,-25.984c-26.446,19.88 -61.07,39.459 -98.759,47.298c-10.554,2.196 -21.362,4.204 -31.811,6.144c-40.259,7.476 -78.906,14.717 -111.406,32.85c-6.329,22.279 -9.791,45.767 -9.791,70.075c0,54.377 17.008,104.759 45.916,146.219c18.729,-74.152 82.967,-146.435 137.947,-197.098Z" style="fill-rule:nonzero;"/><path d="M305.656,110.996c30.456,-19.416 56.712,-32.841 73.748,-37.926c15.298,-4.569 30.305,-7.897 44.516,-10.323c-32.839,-28.536 -72.98,-48.874 -117.292,-57.739c0.982,17.878 1.411,37.507 -9.345,51.768c-5.11,6.773 -13.755,16.061 -25.004,26.138c11.016,8.575 22.212,17.926 33.377,28.082Z" style="fill-rule:nonzero;"/><path d="M315.733,268.768c-3.997,13.54 -9.039,35.218 -14.872,60.316c-17.223,74.108 -33.704,140.42 -52.95,182.708c2.732,0.087 5.464,0.208 8.217,0.208c59.662,0 114.508,-20.465 158.034,-54.68c-1.718,-72.752 -19.159,-175.656 -63.092,-252.045c-17.038,12.664 -26.209,32.586 -35.337,63.493Z" style="fill-rule:nonzero;"/></g></svg>