<?xml version="1.0" encoding="UTF-8" standalone="no"?><!DOCTYPE svg PUBLIC "-//W3C//DTD SVG 1.1//EN" "http://www.w3.org/Graphics/SVG/1.1/DTD/svg11.dtd"><svg width="100%" height="100%" viewBox="0 0 512 512" version="1.1" xmlns="http://www.w3.org/2000/svg" xmlns:xlink="http://www.w3.org/1999/xlink" xml:space="preserve" xmlns:serif="http://www.serif.com/" style="fill-rule:evenodd;clip-rule:evenodd;stroke-linejoin:round;stroke-miterlimit:1.41421;"><g><path d="M506.607,12.21c-4.926,-1.183 -9.295,-3.24 -12.69,-5.22c-4.609,-2.691 -10.401,-1.817 -14.306,1.825c-13.781,12.837 -30.515,21.29 -42.757,26.355c-5.56,2.304 -8.978,8.182 -7.702,14.059c2.034,9.372 -5.475,17.469 -8.151,20.005l-0.974,0.897l-232.845,215.57c-2.073,1.933 -8.066,6.697 -14.43,0.332c-8.027,-8.027 -9.466,-33.856 26.957,-70.286c0,-0.48 9.791,-6.257 3.534,-12.52c-6.256,-6.256 -24.552,2.729 -36.91,15.087c-36.423,36.431 -36.168,62.685 -54.882,80.881c-22.944,22.302 -64.03,18.451 -92.751,47.18c0,0 -53.444,46.476 20.369,120.289c55.423,55.423 87.949,44.303 112.764,19.48c32.743,-32.742 17.307,-64.108 27.732,-74.532c17.546,-17.555 36.013,-13.634 53.791,-35.658c9.845,-12.195 1.013,-23.586 -7.772,-14.801c-7.261,7.261 -26.462,16.51 -36.732,6.241c-8.553,-8.553 -5.506,-19.774 14.956,-42.502l232.729,-232.729c9.713,-9.713 19.333,-12.914 26.37,-13.734c6.395,-0.75 11.654,-4.934 14.136,-10.88c6.612,-15.822 21.483,-32.178 32.719,-43.051c4.068,-3.928 2.343,-10.973 -3.155,-12.288Zm-383.842,426.576c-4.54,4.539 -11.909,4.539 -16.449,0l-43.615,-43.615c-4.539,-4.539 -4.539,-11.909 0,-16.448c4.54,-4.54 11.909,-4.54 16.449,0l43.615,43.615c4.547,4.539 4.547,11.909 0,16.448Z" style="fill-rule:nonzero;"/></g></svg>