<?xml version="1.0" encoding="UTF-8" standalone="no"?><!DOCTYPE svg PUBLIC "-//W3C//DTD SVG 1.1//EN" "http://www.w3.org/Graphics/SVG/1.1/DTD/svg11.dtd"><svg width="100%" height="100%" viewBox="0 0 512 512" version="1.1" xmlns="http://www.w3.org/2000/svg" xmlns:xlink="http://www.w3.org/1999/xlink" xml:space="preserve" xmlns:serif="http://www.serif.com/" style="fill-rule:evenodd;clip-rule:evenodd;stroke-linejoin:round;stroke-miterlimit:1.41421;"><g><path id="rect34754" d="M150.345,5.449c-2.553,0.074 -4.981,1.121 -6.787,2.926l-30.042,30.042c-3.956,3.865 -4.03,10.206 -0.165,14.162c3.866,3.955 10.207,4.029 14.162,0.164c0.056,-0.054 0.112,-0.11 0.166,-0.166l12.945,-12.944l0,85.976l-20.028,0c-5.53,-0.078 -10.079,4.342 -10.157,9.872c-0.078,5.529 4.342,10.078 9.872,10.156c0.094,0.002 0.188,0.002 0.283,0l28.403,0c1.072,0.176 2.163,0.176 3.235,0l18.432,0c5.529,0.078 10.078,-4.342 10.156,-9.872c0.078,-5.53 -4.342,-10.078 -9.872,-10.156c-0.094,-0.002 -0.188,-0.002 -0.282,0l-10.014,0l0,-110.154c-0.002,-5.532 -4.489,-10.012 -10.02,-10.01c-0.095,0 -0.191,0.002 -0.287,0.004Zm110.44,0c-2.553,0.074 -4.981,1.121 -6.787,2.926l-30.042,30.042c-3.99,3.831 -4.12,10.17 -0.288,14.16c3.831,3.989 10.17,4.119 14.159,0.288c0.099,-0.094 0.195,-0.19 0.289,-0.288l12.948,-12.948l0,85.98l-20.028,0c-5.53,-0.078 -10.078,4.342 -10.156,9.872c-0.078,5.529 4.342,10.078 9.871,10.156c0.095,0.002 0.189,0.002 0.283,0l28.404,0c1.075,0.176 2.171,0.176 3.246,0l18.42,0c5.53,0.078 10.078,-4.342 10.156,-9.872c0.078,-5.53 -4.342,-10.078 -9.872,-10.156c-0.094,-0.002 -0.188,-0.002 -0.282,0l-10.014,0l0,-110.154c-0.002,-5.532 -4.488,-10.012 -10.02,-10.01c-0.094,0 -0.19,0.002 -0.287,0.004Zm-225.593,0.068c-19.245,0 -35.049,15.804 -35.049,35.049l0,70.098c0,19.245 15.804,35.049 35.049,35.049c19.245,0 35.049,-15.804 35.049,-35.049l0,-70.098c0,-19.245 -15.804,-35.049 -35.049,-35.049Zm331.319,0c-19.245,0 -35.049,15.804 -35.049,35.049l0,70.098c0,19.245 15.804,35.049 35.049,35.049c19.245,0 35.049,-15.804 35.049,-35.049l0,-70.098c0,-19.245 -15.806,-35.049 -35.049,-35.049Zm110.441,0c-19.245,0 -35.049,15.804 -35.049,35.049l0,70.098c0,19.245 15.804,35.049 35.049,35.049c19.244,0 35.049,-15.804 35.049,-35.049l0,-70.098c0,-19.245 -15.807,-35.049 -35.049,-35.049Zm-441.76,20.028c8.494,0 15.021,6.527 15.021,15.021l0,70.098c0,8.494 -6.527,15.021 -15.021,15.021c-8.494,0 -15.021,-6.527 -15.021,-15.021l0,-70.098c0,-8.496 6.527,-15.021 15.021,-15.021Zm331.319,0c8.494,0 15.021,6.527 15.021,15.021l0,70.098c0,8.494 -6.527,15.021 -15.021,15.021c-8.494,0 -15.021,-6.527 -15.021,-15.021l0,-70.098c0,-8.496 6.525,-15.021 15.021,-15.021Zm110.441,0c8.493,0 15.021,6.527 15.021,15.021l0,70.098c0,8.494 -6.528,15.021 -15.021,15.021c-8.494,0 -15.021,-6.527 -15.021,-15.021l0,-70.098c0,-8.496 6.525,-15.021 15.021,-15.021Zm-437.045,160.298c-2.554,0.074 -4.981,1.122 -6.788,2.926l-30.042,30.042c-3.909,3.913 -3.903,10.256 0.01,14.164c3.91,3.905 10.245,3.905 14.154,0l12.944,-12.944l0,85.976l-20.028,0c-5.53,-0.078 -10.078,4.342 -10.156,9.872c-0.078,5.529 4.342,10.078 9.872,10.156c0.094,0.002 0.188,0.002 0.282,0l28.404,0c1.075,0.176 2.171,0.176 3.246,0l18.42,0c5.53,0.078 10.078,-4.342 10.156,-9.872c0.078,-5.53 -4.342,-10.078 -9.871,-10.156c-0.095,-0.002 -0.189,-0.002 -0.283,0l-10.014,0l0,-110.154c0,-5.532 -4.484,-10.014 -10.016,-10.014c-0.096,0 -0.194,0 -0.29,0.004Zm220.878,0c-2.553,0.074 -4.981,1.122 -6.787,2.926l-30.042,30.042c-3.958,3.865 -4.032,10.204 -0.168,14.162c3.865,3.957 10.204,4.031 14.162,0.168c0.056,-0.054 0.112,-0.11 0.166,-0.166l12.948,-12.948l0,85.98l-20.028,0c-5.53,-0.078 -10.078,4.342 -10.156,9.872c-0.078,5.529 4.342,10.078 9.871,10.156c0.095,0.002 0.189,0.002 0.283,0l28.404,0c1.075,0.176 2.171,0.176 3.246,0l18.42,0c5.53,0.078 10.078,-4.342 10.156,-9.872c0.078,-5.53 -4.342,-10.078 -9.872,-10.156c-0.094,-0.002 -0.188,-0.002 -0.282,0l-10.014,0l0,-110.154c0,-5.532 -4.484,-10.014 -10.016,-10.014c-0.096,0 -0.194,0 -0.291,0.004Zm110.439,0c-2.554,0.074 -4.981,1.122 -6.788,2.926l-30.042,30.042c-3.957,3.865 -4.031,10.204 -0.168,14.162c3.865,3.957 10.204,4.031 14.162,0.168c0.056,-0.054 0.112,-0.11 0.166,-0.166l12.948,-12.948l0,85.98l-20.028,0c-5.53,-0.078 -10.078,4.342 -10.156,9.872c-0.078,5.529 4.342,10.078 9.872,10.156c0.094,0.002 0.188,0.002 0.282,0l28.404,0c1.075,0.176 2.171,0.176 3.246,0l18.42,0c5.53,0.078 10.078,-4.342 10.156,-9.872c0.078,-5.53 -4.342,-10.078 -9.871,-10.156c-0.095,-0.002 -0.189,-0.002 -0.283,0l-10.014,0l0,-110.154c0,-5.532 -4.484,-10.014 -10.016,-10.014c-0.094,0 -0.192,0 -0.29,0.004Zm-225.591,0.066c-19.245,0 -35.049,15.804 -35.049,35.049l0,70.098c0,19.245 15.804,35.049 35.049,35.049c19.244,0 35.049,-15.804 35.049,-35.049l0,-70.098c0,-19.245 -15.807,-35.049 -35.049,-35.049Zm331.319,0c-19.245,0 -35.049,15.804 -35.049,35.049l0,70.098c0,19.245 15.804,35.049 35.049,35.049c19.244,0 35.049,-15.804 35.049,-35.049l0,-70.098c0,-19.245 -15.807,-35.049 -35.049,-35.049Zm-331.319,20.028c8.493,0 15.021,6.527 15.021,15.021l0,70.098c0,8.494 -6.528,15.021 -15.021,15.021c-8.494,0 -15.021,-6.527 -15.021,-15.021l0,-70.098c0,-8.496 6.525,-15.021 15.021,-15.021Zm331.319,0c8.493,0 15.021,6.527 15.021,15.021l0,70.098c0,8.494 -6.528,15.021 -15.021,15.021c-8.494,0 -15.021,-6.527 -15.021,-15.021l0,-70.098c0,-8.496 6.525,-15.021 15.021,-15.021Zm-437.045,160.298c-2.554,0.074 -4.981,1.122 -6.788,2.926l-30.042,30.042c-3.911,3.912 -3.911,10.252 0,14.164c3.912,3.911 10.253,3.911 14.164,0l12.944,-12.944l0,85.972l-20.028,0c-5.53,-0.078 -10.078,4.342 -10.156,9.872c-0.078,5.529 4.342,10.078 9.872,10.156c0.094,0.002 0.188,0.002 0.282,0l28.404,0c1.075,0.176 2.171,0.176 3.246,0l18.42,0c5.53,0.078 10.078,-4.342 10.156,-9.872c0.078,-5.53 -4.342,-10.078 -9.871,-10.156c-0.095,-0.002 -0.189,-0.002 -0.283,0l-10.014,0l0,-110.154c-0.002,-5.532 -4.488,-10.012 -10.02,-10.01c-0.094,0 -0.19,0.002 -0.286,0.004Zm110.438,0c-2.553,0.074 -4.981,1.122 -6.787,2.926l-30.042,30.042c-3.912,3.912 -3.912,10.252 0,14.164c3.911,3.911 10.252,3.911 14.163,0l12.945,-12.944l0,85.972l-20.028,0c-5.53,-0.078 -10.079,4.342 -10.157,9.872c-0.078,5.529 4.342,10.078 9.872,10.156c0.094,0.002 0.188,0.002 0.283,0l28.403,0c1.072,0.176 2.163,0.176 3.235,0l18.432,0c5.529,0.078 10.078,-4.342 10.156,-9.872c0.078,-5.53 -4.342,-10.078 -9.872,-10.156c-0.094,-0.002 -0.188,-0.002 -0.282,0l-10.014,0l0,-110.154c-0.002,-5.532 -4.489,-10.012 -10.02,-10.01c-0.095,0 -0.191,0.002 -0.287,0.004Zm110.44,0c-2.553,0.074 -4.981,1.122 -6.787,2.926l-30.042,30.042c-3.958,3.866 -4.032,10.204 -0.168,14.162c3.865,3.957 10.204,4.032 14.162,0.168c0.056,-0.054 0.112,-0.11 0.166,-0.166l12.948,-12.948l0,85.976l-20.028,0c-5.53,-0.078 -10.078,4.342 -10.156,9.872c-0.078,5.529 4.342,10.078 9.871,10.156c0.095,0.002 0.189,0.002 0.283,0l28.404,0c1.075,0.176 2.171,0.176 3.246,0l18.42,0c5.53,0.078 10.078,-4.342 10.156,-9.872c0.078,-5.53 -4.342,-10.078 -9.872,-10.156c-0.094,-0.002 -0.188,-0.002 -0.282,0l-10.014,0l0,-110.154c-0.002,-5.532 -4.488,-10.012 -10.02,-10.01c-0.094,0 -0.19,0.002 -0.287,0.004Zm110.439,0c-2.554,0.074 -4.981,1.122 -6.788,2.926l-30.042,30.042c-3.957,3.866 -4.031,10.204 -0.168,14.162c3.865,3.957 10.204,4.032 14.162,0.168c0.056,-0.054 0.112,-0.11 0.166,-0.166l12.948,-12.948l0,85.976l-20.028,0c-5.53,-0.078 -10.078,4.342 -10.156,9.872c-0.078,5.529 4.342,10.078 9.872,10.156c0.094,0.002 0.188,0.002 0.282,0l28.404,0c1.075,0.176 2.171,0.176 3.246,0l18.42,0c5.53,0.078 10.078,-4.342 10.156,-9.872c0.078,-5.53 -4.342,-10.078 -9.871,-10.156c-0.095,-0.002 -0.189,-0.002 -0.283,0l-10.014,0l0,-110.154c-0.002,-5.532 -4.488,-10.012 -10.02,-10.01c-0.094,0 -0.19,0.002 -0.286,0.004Zm105.728,0.066c-19.245,0 -35.049,15.804 -35.049,35.049l0,70.098c0,19.245 15.804,35.049 35.049,35.049c19.244,0 35.049,-15.804 35.049,-35.049l0,-70.098c0,-19.243 -15.807,-35.049 -35.049,-35.049Zm0,20.028c8.493,0 15.021,6.527 15.021,15.021l0,70.098c0,8.494 -6.528,15.021 -15.021,15.021c-8.494,0 -15.021,-6.527 -15.021,-15.021l0,-70.098c0,-8.494 6.525,-15.021 15.021,-15.021Z" style="fill-rule:nonzero;"/></g></svg>