<?xml version="1.0" encoding="UTF-8" standalone="no"?><!DOCTYPE svg PUBLIC "-//W3C//DTD SVG 1.1//EN" "http://www.w3.org/Graphics/SVG/1.1/DTD/svg11.dtd"><svg width="100%" height="100%" viewBox="0 0 512 512" version="1.1" xmlns="http://www.w3.org/2000/svg" xmlns:xlink="http://www.w3.org/1999/xlink" xml:space="preserve" xmlns:serif="http://www.serif.com/" style="fill-rule:evenodd;clip-rule:evenodd;stroke-linejoin:round;stroke-miterlimit:1.41421;"><g><path d="M186.543,282.467c0,-6.413 -5.202,-11.609 -11.621,-11.609l-40.554,0c-6.412,0 -11.615,5.196 -11.615,11.609l0,40.549c0,6.422 5.203,11.62 11.615,11.62l40.554,0c6.419,0 11.621,-5.198 11.621,-11.62l0,-40.549Z" style="fill-rule:nonzero;"/><path d="M287.892,282.467c0,-6.413 -5.203,-11.609 -11.609,-11.609l-40.559,0c-6.412,0 -11.615,5.196 -11.615,11.609l0,40.549c0,6.422 5.203,11.62 11.615,11.62l40.559,0c6.406,0 11.609,-5.198 11.609,-11.62l0,-40.549Z" style="fill-rule:nonzero;"/><path d="M389.247,282.467c0,-6.413 -5.203,-11.609 -11.615,-11.609l-40.554,0c-6.419,0 -11.621,5.196 -11.621,11.609l0,40.549c0,6.422 5.202,11.62 11.621,11.62l40.554,0c6.412,0 11.615,-5.198 11.615,-11.62l0,-40.549Z" style="fill-rule:nonzero;"/><path d="M186.543,383.827c0,-6.424 -5.202,-11.616 -11.621,-11.616l-40.554,0c-6.412,0 -11.615,5.192 -11.615,11.616l0,40.541c0,6.418 5.203,11.615 11.615,11.615l40.554,0c6.419,0 11.621,-5.198 11.621,-11.615l0,-40.541Z" style="fill-rule:nonzero;"/><path d="M287.892,383.827c0,-6.424 -5.203,-11.616 -11.609,-11.616l-40.559,0c-6.412,0 -11.615,5.192 -11.615,11.616l0,40.541c0,6.418 5.203,11.615 11.615,11.615l40.559,0c6.406,0 11.609,-5.198 11.609,-11.615l0,-40.541Z" style="fill-rule:nonzero;"/><path d="M389.247,383.827c0,-6.424 -5.203,-11.616 -11.61,-11.616l-40.559,0c-6.419,0 -11.621,5.192 -11.621,11.616l0,40.541c0,6.418 5.202,11.615 11.621,11.615l40.559,0c6.407,0 11.61,-5.198 11.61,-11.615l0,-40.541Z" style="fill-rule:nonzero;"/><path d="M461.762,57.009l0,61.935c0,27.994 -22.71,50.552 -50.7,50.552l-31.982,0c-27.992,0 -51.003,-22.558 -51.003,-50.552l0,-62.157l-144.154,0l0,62.157c0,27.994 -23.01,50.552 -50.997,50.552l-31.989,0c-27.989,0 -50.698,-22.558 -50.698,-50.552l0,-61.935c-24.462,0.738 -44.563,20.979 -44.563,45.859l0,362.967c0,25.347 20.545,46.165 45.892,46.165l408.864,0c25.309,0 45.892,-20.861 45.892,-46.165l0,-362.967c0,-24.88 -20.1,-45.121 -44.562,-45.859Zm-14.855,386.223c0,10.954 -8.882,19.841 -19.84,19.841l-343.007,0c-10.959,0 -19.84,-8.887 -19.84,-19.841l0,-187.485c0,-10.959 8.88,-19.846 19.84,-19.846l343.006,0c10.958,0 19.84,8.887 19.84,19.846l0.001,187.485Z" style="fill-rule:nonzero;"/><path d="M100.825,136.293l31.635,0c9.602,0 17.388,-7.774 17.388,-17.376l0,-101.534c0,-9.604 -7.786,-17.383 -17.388,-17.383l-31.635,0c-9.604,0 -17.388,7.779 -17.388,17.383l0,101.534c0,9.602 7.784,17.376 17.388,17.376Z" style="fill-rule:nonzero;"/><path d="M378.673,136.293l31.635,0c9.596,0 17.382,-7.774 17.382,-17.376l0,-101.534c0.001,-9.604 -7.785,-17.383 -17.382,-17.383l-31.635,0c-9.602,0 -17.387,7.779 -17.387,17.383l0,101.534c0,9.602 7.785,17.376 17.387,17.376Z" style="fill-rule:nonzero;"/></g></svg>