<?xml version="1.0" encoding="UTF-8" standalone="no"?><!DOCTYPE svg PUBLIC "-//W3C//DTD SVG 1.1//EN" "http://www.w3.org/Graphics/SVG/1.1/DTD/svg11.dtd"><svg width="100%" height="100%" viewBox="0 0 512 512" version="1.1" xmlns="http://www.w3.org/2000/svg" xmlns:xlink="http://www.w3.org/1999/xlink" xml:space="preserve" xmlns:serif="http://www.serif.com/" style="fill-rule:evenodd;clip-rule:evenodd;stroke-linejoin:round;stroke-miterlimit:1.41421;"><g><path d="M256,0c-107.79,0 -215.579,13.474 -215.579,107.789l0,256c0,52.008 42.307,94.316 94.316,94.316l-40.421,40.421l0,13.474l60.092,0l53.895,-53.895l101.592,0l53.894,53.894l53.895,0l0,-13.474l-40.421,-40.421c52.008,0 94.316,-42.307 94.316,-94.316l0,-255.999c-0.001,-94.315 -96.472,-107.789 -215.579,-107.789Zm-121.263,404.21c-22.367,0 -40.421,-18.054 -40.421,-40.421c0,-22.367 18.054,-40.421 40.421,-40.421c22.367,0 40.421,18.054 40.421,40.421c0,22.367 -18.056,40.421 -40.421,40.421Zm94.315,-188.631l-134.736,0l0,-107.79l134.737,0l0,107.79l-0.001,0Zm148.211,188.631c-22.367,0 -40.421,-18.054 -40.421,-40.421c0,-22.367 18.054,-40.421 40.421,-40.421c22.367,0 40.421,18.054 40.421,40.421c0,22.367 -18.056,40.421 -40.421,40.421Zm40.421,-188.631l-134.737,0l0,-107.79l134.737,0l0,107.79Z" style="fill-rule:nonzero;"/></g></svg>