<?xml version="1.0" encoding="UTF-8" standalone="no"?><!DOCTYPE svg PUBLIC "-//W3C//DTD SVG 1.1//EN" "http://www.w3.org/Graphics/SVG/1.1/DTD/svg11.dtd"><svg width="100%" height="100%" viewBox="0 0 512 512" version="1.1" xmlns="http://www.w3.org/2000/svg" xmlns:xlink="http://www.w3.org/1999/xlink" xml:space="preserve" xmlns:serif="http://www.serif.com/" style="fill-rule:evenodd;clip-rule:evenodd;stroke-linejoin:round;stroke-miterlimit:1.41421;"><g><path d="M194.206,74.169c-1.456,-4.004 -4.186,-6.006 -8.191,-6.006l-70.437,0c-4.005,0 -6.735,2.002 -8.191,6.006l-107.023,351.647c-0.728,3.277 -0.364,5.64 1.092,7.096c1.456,2.184 3.822,3.279 7.099,3.279l63.34,0c4.368,0 7.098,-2.002 8.19,-6.006l18.02,-63.341l105.385,0l18.02,63.341c1.092,4.004 3.64,6.006 7.644,6.006l64.43,0c2.184,0 4.098,-0.729 5.736,-2.184c1.638,-1.455 2.457,-3.458 2.457,-6.006c0,-0.727 -0.365,-2.183 -1.095,-4.369l-106.476,-349.463Zm-79.72,224.421l36.038,-128.865l36.584,128.865l-72.622,0Zm371.849,-101.563c-17.109,-15.653 -41.133,-23.479 -72.074,-23.479c-19.293,0 -37.13,3.185 -53.512,9.554c-16.382,6.371 -30.76,15.744 -43.137,28.121c-2.915,2.912 -3.458,6.189 -1.638,9.829l20.203,34.945c1.093,2.184 3.094,3.641 6.007,4.369c2.546,0.729 4.914,0 7.098,-2.185c16.745,-17.109 35.31,-25.663 55.696,-25.663c26.209,0 39.313,12.559 39.313,37.676l0,15.835c-15.289,-12.012 -34.218,-18.016 -56.786,-18.016c-10.193,0 -20.295,1.728 -30.305,5.185c-10.013,3.459 -18.932,8.737 -26.756,15.835c-7.828,7.099 -14.197,16.2 -19.111,27.305c-4.915,11.101 -7.372,24.114 -7.372,39.041c0,14.559 2.364,27.302 7.096,38.223c4.735,10.921 11.103,20.112 19.114,27.575c8.007,7.461 16.926,13.105 26.753,16.927c9.83,3.822 20.021,5.733 30.578,5.733c10.557,0 20.748,-1.638 30.577,-4.914c9.831,-3.276 18.568,-8.008 26.21,-14.197l0,4.914c0,2.185 0.819,4.098 2.457,5.736c1.641,1.639 3.55,2.458 5.736,2.458l51.325,0c2.184,0 4.097,-0.819 5.736,-2.458c1.638,-1.638 2.457,-3.55 2.457,-5.736l0,-165.996c0.001,-28.758 -8.554,-50.964 -25.665,-66.617Zm-42.043,176.915c-8.009,12.377 -20.75,18.568 -38.223,18.568c-10.557,0 -18.928,-3.367 -25.115,-10.102c-6.19,-6.734 -9.283,-15.563 -9.283,-26.485c0,-10.918 3.094,-19.837 9.283,-26.753c6.187,-6.917 14.558,-10.375 25.115,-10.375c5.096,0 11.469,1.182 19.111,3.549c7.645,2.367 14.015,7.736 19.112,16.108l0,35.49Z" style="fill:#010002;fill-rule:nonzero;"/></g></svg>