<?xml version="1.0" encoding="UTF-8" standalone="no"?><!DOCTYPE svg PUBLIC "-//W3C//DTD SVG 1.1//EN" "http://www.w3.org/Graphics/SVG/1.1/DTD/svg11.dtd"><svg width="100%" height="100%" viewBox="0 0 512 512" version="1.1" xmlns="http://www.w3.org/2000/svg" xmlns:xlink="http://www.w3.org/1999/xlink" xml:space="preserve" xmlns:serif="http://www.serif.com/" style="fill-rule:evenodd;clip-rule:evenodd;stroke-linejoin:round;stroke-miterlimit:1.41421;"><g><path d="M511.402,97.152c-0.734,-0.865 -1.945,-1.159 -2.978,-0.687c-15.307,6.791 -31.411,11.673 -47.998,14.557c17.609,-13.246 30.729,-31.589 37.457,-52.623c0.325,-1.006 -0.01,-2.108 -0.833,-2.763c-0.829,-0.656 -1.977,-0.74 -2.885,-0.199c-19.832,11.762 -41.311,20.052 -63.87,24.651c-19.99,-20.745 -47.903,-32.612 -76.792,-32.612c-58.753,0 -106.545,47.793 -106.545,106.541c0,7.105 0.686,14.142 2.05,20.975c-81.375,-5.023 -157.464,-44.09 -209.2,-107.547c-0.53,-0.65 -1.332,-1.012 -2.171,-0.928c-0.834,0.063 -1.579,0.535 -1.998,1.253c-9.439,16.193 -14.426,34.72 -14.426,53.567c0,32.664 14.84,63.204 40.11,83.357c-13.01,-1.563 -25.716,-5.658 -37.174,-12.019c-0.77,-0.436 -1.73,-0.43 -2.501,0.015c-0.771,0.441 -1.258,1.259 -1.279,2.15l-0.011,1.364c0,46.912 30.913,88.103 74.894,101.779c-11.584,1.866 -23.603,1.741 -35.418,-0.514c-0.87,-0.163 -1.783,0.136 -2.381,0.807c-0.592,0.672 -0.791,1.61 -0.519,2.46c13.189,41.164 49.833,70.032 92.487,73.629c-35.58,26.068 -77.636,39.801 -122.073,39.801c-8.185,0 -16.429,-0.487 -24.504,-1.436c-1.154,-0.131 -2.297,0.556 -2.696,1.662c-0.398,1.117 0.026,2.365 1.023,2.999c48.086,30.84 103.687,47.133 160.799,47.133c186.814,0 298.446,-151.748 298.446,-298.452c0,-4.085 -0.079,-8.149 -0.242,-12.202c20.153,-14.741 37.452,-32.785 51.401,-53.671c0.624,-0.934 0.556,-2.177 -0.173,-3.047Z" style="fill-rule:nonzero;"/></g></svg>