<?xml version="1.0" encoding="UTF-8" standalone="no"?><!DOCTYPE svg PUBLIC "-//W3C//DTD SVG 1.1//EN" "http://www.w3.org/Graphics/SVG/1.1/DTD/svg11.dtd"><svg width="100%" height="100%" viewBox="0 0 512 512" version="1.1" xmlns="http://www.w3.org/2000/svg" xmlns:xlink="http://www.w3.org/1999/xlink" xml:space="preserve" xmlns:serif="http://www.serif.com/" style="fill-rule:evenodd;clip-rule:evenodd;stroke-linejoin:round;stroke-miterlimit:1.41421;"><g><path d="M509.058,186.944c-2.504,-3.055 -6.24,-4.837 -10.16,-4.837l-49.829,0c-12.297,-32.433 -28.317,-64.211 -46.526,-76.206c-62.991,-41.439 -230.072,-41.439 -293.063,0c-18.222,12.008 -34.177,43.825 -46.539,76.206l-49.829,0c-3.959,0 -7.682,1.782 -10.16,4.837c-2.491,3.041 -3.487,7.066 -2.674,10.933l7.38,35.763c1.259,6.096 6.634,10.448 12.834,10.448l14.762,0c-14.25,16.44 -21.159,37.14 -21.251,57.853c-0.092,25.589 9.623,48.715 27.386,65.075c0.197,0.171 0.393,0.289 0.577,0.459l0,50.039c0,10.842 8.809,19.665 19.664,19.665l45.962,0c10.855,0 19.664,-8.823 19.664,-19.665l0,-20.11l257.485,0l0,20.11c0,10.842 8.809,19.665 19.664,19.665l45.962,0c10.828,0 19.664,-8.823 19.664,-19.665l0,-49.056c18.852,-17.265 27.858,-41.019 27.976,-64.734c0.079,-21.421 -7.145,-42.882 -22.234,-59.662l15.745,0c6.227,0 11.602,-4.352 12.834,-10.461l7.394,-35.75c0.76,-3.841 -0.197,-7.839 -2.688,-10.907Zm-377.987,-48.204c50.21,-33.049 199.645,-33.049 249.828,0c9.754,6.398 22.3,32.263 33.797,63.935l-317.395,0c11.471,-31.659 24.017,-57.511 33.77,-63.935Zm-58.809,168.13c0,-21.369 17.331,-38.673 38.686,-38.673c21.382,0 38.686,17.304 38.686,38.673c0,21.368 -17.304,38.686 -38.686,38.686c-21.355,0 -38.686,-17.318 -38.686,-38.686Zm329.298,38.686c-21.355,0 -38.686,-17.318 -38.686,-38.686c0,-21.369 17.331,-38.673 38.686,-38.673c21.382,0 38.686,17.304 38.686,38.673c0,21.368 -17.33,38.686 -38.686,38.686Z" style="fill-rule:nonzero;"/></g></svg>